<svg width="77" height="123" viewBox="0 0 77 123" fill="none" xmlns="http://www.w3.org/2000/svg">
<path d="M62.306 39.448C62.306 39.448 45.352 36.726 43.859 21.554C43.859 21.554 73.692 30.951 62.306 39.448Z" fill="url(#paint0_linear_703_3)"/>
<path d="M61.106 43.978L75.35 68.936L71.471 109.139L73.4 110.823C76.683 113.689 77.093 118.645 74.325 122.011L68.006 116.7L65.849 70.029L37.433 47.739L40.073 44.403C45.393 37.681 55.521 37.477 61.106 43.978Z" fill="url(#paint1_linear_703_3)"/>
<path d="M30.916 110.725L52.619 112.321C56.62 111.98 59.962 102.906 58.364 99.224C56.002 93.783 52.459 80.734 56.849 69.316C61.491 57.222 61.052 49.853 58.796 45.354C55.288 38.337 47.358 38.312 47.358 38.312L40.428 41.35L32.095 61.153C30.928 63.927 31.681 67.136 33.954 69.111L36.749 71.539L31.897 104.139L30.916 110.725Z" fill="url(#paint2_linear_703_3)"/>
<path d="M30.916 110.725L52.619 112.321C56.62 111.98 59.962 102.906 58.364 99.224C56.002 93.783 52.459 80.734 56.849 69.316C61.491 57.222 61.052 49.853 58.796 45.354L47.804 44.6C47.804 44.6 50.106 86.394 46.072 92.497C43.411 96.524 36.378 101.333 31.898 104.139L30.916 110.725Z" fill="url(#paint3_linear_703_3)"/>
<path d="M55.926 61.651L43.882 87.742L8.90199 107.934L8.65099 110.482C8.22499 114.819 4.42799 118.031 0.0809937 117.733L0.734994 109.504L37.475 80.643L43.366 44.776C51.926 45.202 57.975 53.328 55.926 61.651Z" fill="url(#paint4_linear_703_3)"/>
<path d="M37.717 31.231L41.205 41.388L47.67 40.908L45.35 28.119L36.702 27.833L37.717 31.231Z" fill="url(#paint5_linear_703_3)"/>
<path d="M51.739 32.11C50.228 34.696 47.13 35.697 44.813 34.347C44.482 34.153 44.187 33.919 43.925 33.653C41.132 35.468 37.657 35.768 34.83 34.12C33.376 33.271 32.291 32.18 31.612 30.85C34.038 29.865 33.294 29.182 33.294 29.182L30.961 29.022C30.836 28.453 30.771 27.852 30.763 27.218C29.45 27.281 28.434 26.238 28.434 26.238C28.434 26.238 30.795 25.455 30.968 24.457C31.201 23.378 31.609 22.306 32.204 21.282C34.923 16.624 40.505 14.821 44.672 17.254C47.227 18.744 48.654 21.48 48.753 24.443C49.281 24.528 49.8 24.702 50.279 24.981C52.593 26.333 53.247 29.525 51.739 32.11Z" fill="url(#paint6_linear_703_3)"/>
<path d="M33.8228 26.0115C34.1059 26.0011 34.3169 25.488 34.2939 24.8654C34.271 24.2429 34.0229 23.7467 33.7398 23.7571C33.4567 23.7675 33.2457 24.2807 33.2687 24.9032C33.2916 25.5257 33.5397 26.022 33.8228 26.0115Z" fill="#1D1D1B"/>
<path d="M35.674 13.301C39.73 10.15 45.641 10.841 51.495 16.33C60.539 24.809 50.495 28.335 65.86 51.967C69.157 57.037 61.987 81.027 55.767 75.217C47.587 67.575 56.547 57.983 42.566 55.944C28.585 53.905 44.319 38.716 42.044 30.509C41.827 29.725 41.579 28.991 41.306 28.305C40.089 25.237 37.713 22.775 34.728 21.369L34.56 19.305L33.654 21.409L31.314 21.495C31.078 18.476 33.083 15.314 35.674 13.301Z" fill="#1D1D1B"/>
<path d="M58.75 23.113C58.668 23.457 58.569 23.804 58.455 24.142C58.344 24.492 58.21 24.843 58.061 25.185C57.876 25.621 57.667 26.036 57.438 26.435C57.068 27.087 56.644 27.695 56.174 28.254C55.77 28.075 55.35 27.894 54.924 27.716C53.037 26.924 50.97 26.1 48.792 25.214C45.97 23.31 42.855 21.206 39.843 18.794C39.459 18.49 39.072 18.174 38.685 17.857C37.316 16.713 36.217 15.461 35.348 14.137C36.583 11.827 38.461 10.038 40.657 8.90699C40.683 8.88999 40.714 8.87899 40.739 8.86699C40.785 8.83699 40.828 8.81699 40.878 8.79399C42.7 7.89099 44.724 7.42999 46.791 7.48099C48.369 7.52199 49.977 7.85599 51.516 8.52699C57.246 11.014 60.195 17.239 58.75 23.113Z" fill="url(#paint7_linear_703_3)"/>
<path d="M58.75 23.113C58.668 23.457 58.569 23.804 58.455 24.142C58.344 24.492 58.21 24.843 58.061 25.185C57.876 25.621 57.667 26.036 57.438 26.435C57.068 27.087 56.644 27.695 56.174 28.254C55.77 28.075 55.35 27.894 54.924 27.716C53.037 26.924 50.97 26.1 48.792 25.214C45.97 23.31 42.855 21.206 39.843 18.794C39.459 18.49 39.072 18.174 38.685 17.857C37.316 16.713 36.217 15.461 35.348 14.137C36.583 11.827 38.461 10.038 40.657 8.90699C40.683 8.88999 40.714 8.87899 40.739 8.86699C41.811 13.122 45.706 19.412 58.75 23.113Z" fill="url(#paint8_linear_703_3)"/>
<path d="M62.306 39.448C65.091 35.491 62.404 32.926 57.114 30.365C56.416 30.025 55.667 29.685 54.879 29.343C54.475 29.164 54.055 28.982 53.629 28.805C51.742 28.013 49.675 27.189 47.497 26.303C44.324 25.01 40.92 23.575 37.547 21.88C37.039 21.629 36.529 21.367 36.019 21.099C34.206 20.141 32.667 18.996 31.371 17.715C21.731 8.24599 30.35 0.886993 30.35 0.886993C38.739 3.91799 38.454 16.237 48.943 20.702C49.94 21.126 56.324 24.818 57.16 25.231C57.832 25.56 58.453 25.891 59.031 26.212C59.082 26.239 59.133 26.267 59.178 26.293C72.03 33.58 62.633 39.256 62.306 39.448Z" fill="url(#paint9_linear_703_3)"/>
<defs>
<linearGradient id="paint0_linear_703_3" x1="59.1185" y1="18.3862" x2="58.2705" y2="20.4167" gradientUnits="userSpaceOnUse">
<stop stop-color="#2FAC66"/>
<stop offset="1" stop-color="#006680"/>
</linearGradient>
<linearGradient id="paint1_linear_703_3" x1="80.4367" y1="32.827" x2="19.7582" y2="12.9277" gradientUnits="userSpaceOnUse">
<stop stop-color="#F7C9AA"/>
<stop offset="1" stop-color="#FF717A"/>
</linearGradient>
<linearGradient id="paint2_linear_703_3" x1="51.3487" y1="141.683" x2="64.6786" y2="153.258" gradientUnits="userSpaceOnUse">
<stop stop-color="#EDEDED"/>
<stop offset="1" stop-color="#B4D3EC"/>
</linearGradient>
<linearGradient id="paint3_linear_703_3" x1="92.3637" y1="67.1622" x2="81.4166" y2="67.0955" gradientUnits="userSpaceOnUse">
<stop stop-color="#EDEDED"/>
<stop offset="1" stop-color="#B4D3EC"/>
</linearGradient>
<linearGradient id="paint4_linear_703_3" x1="57.3261" y1="104.894" x2="100.102" y2="37.9186" gradientUnits="userSpaceOnUse">
<stop stop-color="#F7C9AA"/>
<stop offset="1" stop-color="#FF717A"/>
</linearGradient>
<linearGradient id="paint5_linear_703_3" x1="55.4018" y1="26.8066" x2="38.0538" y2="23.8542" gradientUnits="userSpaceOnUse">
<stop stop-color="#F7C9AA"/>
<stop offset="1" stop-color="#FF717A"/>
</linearGradient>
<linearGradient id="paint6_linear_703_3" x1="52.1275" y1="30.5821" x2="52.9691" y2="11.572" gradientUnits="userSpaceOnUse">
<stop stop-color="#F7C9AA"/>
<stop offset="1" stop-color="#FF717A"/>
</linearGradient>
<linearGradient id="paint7_linear_703_3" x1="63.182" y1="-33.6502" x2="59.8757" y2="-23.5471" gradientUnits="userSpaceOnUse">
<stop stop-color="#EDEDED"/>
<stop offset="1" stop-color="#B4D3EC"/>
</linearGradient>
<linearGradient id="paint8_linear_703_3" x1="42.907" y1="6.06691" x2="35.9835" y2="23.0706" gradientUnits="userSpaceOnUse">
<stop stop-color="#D60B52"/>
<stop offset="1" stop-color="#8A1C4D"/>
</linearGradient>
<linearGradient id="paint9_linear_703_3" x1="32.2522" y1="8.82614" x2="15.9975" y2="40.7579" gradientUnits="userSpaceOnUse">
<stop stop-color="#EDEDED"/>
<stop offset="1" stop-color="#B4D3EC"/>
</linearGradient>
</defs>
</svg>
