<svg width="224" height="23" viewBox="0 0 224 23" fill="none" xmlns="http://www.w3.org/2000/svg">
<path d="M6.52539 10.3838L12.8535 0.583984H16.75L7.62402 13.958L5.9541 22H2.46777L4.21094 13.8994L0.724609 0.583984H4.26953L6.52539 10.3838ZM36.3065 8.49414C36.3065 11.2188 35.8427 13.6455 34.9149 15.7744C33.9872 17.9033 32.7079 19.5244 31.077 20.6377C29.4559 21.7412 27.5712 22.293 25.4227 22.293C22.8934 22.293 20.9354 21.5654 19.5487 20.1104C18.162 18.6455 17.4686 16.624 17.4686 14.0459C17.4686 11.4385 17.9471 9.06055 18.9042 6.91211C19.871 4.75391 21.1893 3.10352 22.8593 1.96094C24.5292 0.818359 26.4237 0.24707 28.5429 0.24707C30.994 0.24707 32.8983 0.974609 34.2557 2.42969C35.6229 3.88477 36.3065 5.90625 36.3065 8.49414ZM28.2645 3.25C26.9169 3.25 25.6962 3.71875 24.6024 4.65625C23.5087 5.59375 22.6493 6.89746 22.0243 8.56738C21.4091 10.2275 21.1014 12.0439 21.1014 14.0166C21.1014 15.7061 21.497 17.0098 22.288 17.9277C23.0888 18.8457 24.202 19.3047 25.6278 19.3047C26.9755 19.3047 28.1864 18.8408 29.2606 17.9131C30.3446 16.9756 31.1845 15.6816 31.7802 14.0312C32.3856 12.3711 32.6884 10.5352 32.6884 8.52344C32.6884 6.86328 32.3026 5.56934 31.5311 4.6416C30.7596 3.71387 29.6708 3.25 28.2645 3.25ZM59.5398 0.583984L56.5808 14.5879C56.0339 17.1953 55.0183 19.1338 53.5339 20.4033C52.0496 21.6631 50.0818 22.293 47.6306 22.293C45.5115 22.293 43.8709 21.7754 42.7088 20.7402C41.5564 19.7051 40.9802 18.2158 40.9802 16.2725C40.9802 15.4619 41.0779 14.6318 41.2732 13.7822L44.1004 0.583984H47.572L44.7595 13.8408C44.5545 14.7002 44.4519 15.4717 44.4519 16.1553C44.4519 17.1514 44.74 17.9277 45.3162 18.4844C45.9021 19.0312 46.7859 19.3047 47.9675 19.3047C49.3836 19.3047 50.5066 18.9141 51.3367 18.1328C52.1668 17.3418 52.7722 16.0625 53.1531 14.2949L56.0681 0.583984H59.5398ZM67.0553 13.4453L65.2536 22H61.7819L66.3082 0.583984H71.2594C73.4371 0.583984 75.1071 1.04785 76.2692 1.97559C77.4313 2.89355 78.0123 4.30957 78.0123 6.22363C78.0123 7.83496 77.5875 9.19727 76.7379 10.3105C75.8981 11.4141 74.6432 12.2197 72.9733 12.7275L76.6207 22H72.8121L69.7799 13.4453H67.0553ZM67.6852 10.5449H69.487C71.1471 10.5449 72.3873 10.1787 73.2077 9.44629C74.028 8.71387 74.4381 7.70801 74.4381 6.42871C74.4381 5.40332 74.15 4.66602 73.5739 4.2168C72.9977 3.76758 72.1041 3.54297 70.8932 3.54297H69.15L67.6852 10.5449ZM96.3393 16.8145L96.9252 15.291L98.3021 11.8926L103.209 0.583984H108.131V12.1855C108.131 13.709 108.004 15.252 107.75 16.8145C107.848 16.541 108.497 14.8516 109.699 11.7461L114.137 0.583984H119.806L110.504 22H103.751V12.918C103.751 11.4043 103.815 9.82227 103.942 8.17188C103.62 9.4707 103.043 11.1748 102.213 13.2842L98.5072 22H92.1498L91.432 0.583984H96.852L96.7055 11.3213C96.6469 13.9287 96.5248 15.7598 96.3393 16.8145ZM131.965 22H119.25L123.777 0.583984H136.491L135.539 5.22754H128.552L127.864 8.59668H134.367L133.313 13.2402H126.809L125.974 17.2832H132.961L131.965 22ZM142.147 0.583984H149.28C151.4 0.583984 153.006 0.989258 154.1 1.7998C155.194 2.60059 155.74 3.75293 155.74 5.25684C155.74 8.06934 154.29 9.91016 151.39 10.7793V10.8965C152.249 11.1797 152.933 11.6777 153.441 12.3906C153.948 13.0938 154.202 13.958 154.202 14.9834C154.202 17.2197 153.455 18.9482 151.961 20.1689C150.477 21.3896 148.367 22 145.633 22H137.62L142.147 0.583984ZM146.131 8.80176H147.186C148.045 8.80176 148.694 8.61621 149.134 8.24512C149.573 7.87402 149.793 7.27832 149.793 6.45801C149.793 5.46191 149.173 4.96387 147.933 4.96387H147.01L146.131 8.80176ZM145.267 13.0352L144.3 17.5322H145.501C146.341 17.5322 147.039 17.2979 147.596 16.8291C148.162 16.3506 148.445 15.7549 148.445 15.042C148.445 14.3682 148.284 13.8652 147.962 13.5332C147.64 13.2012 147.073 13.0352 146.263 13.0352H145.267ZM171.957 15.4229C171.957 17.5908 171.239 19.2803 169.804 20.4912C168.368 21.6924 166.366 22.293 163.798 22.293C162.724 22.293 161.708 22.1758 160.751 21.9414C159.794 21.6973 158.969 21.3457 158.275 20.8867V15.7598C159.096 16.2773 160.033 16.7119 161.088 17.0635C162.152 17.415 163.114 17.5908 163.974 17.5908C164.696 17.5908 165.243 17.4395 165.614 17.1367C165.985 16.834 166.171 16.4043 166.171 15.8477C166.171 15.584 166.112 15.3398 165.995 15.1152C165.878 14.8809 165.712 14.6514 165.497 14.4268C165.282 14.1924 164.706 13.6846 163.769 12.9033C162.626 11.9854 161.796 11.0479 161.278 10.0908C160.761 9.13379 160.502 8.08398 160.502 6.94141C160.502 5.66211 160.819 4.51465 161.454 3.49902C162.099 2.47363 163.002 1.68262 164.164 1.12598C165.336 0.55957 166.645 0.276367 168.09 0.276367C170.424 0.276367 172.523 0.798828 174.389 1.84375L172.411 6.19434C170.741 5.33496 169.32 4.90527 168.148 4.90527C167.523 4.90527 167.04 5.04199 166.698 5.31543C166.366 5.58887 166.2 5.98926 166.2 6.5166C166.2 6.99512 166.361 7.44434 166.684 7.86426C167.016 8.27441 167.641 8.82617 168.559 9.51953C169.711 10.3691 170.565 11.2627 171.122 12.2002C171.679 13.1377 171.957 14.2119 171.957 15.4229ZM176.03 22L180.557 0.583984H186.372L181.846 22H176.03ZM196.92 22H191.192L194.664 5.31543H190.02L191.031 0.583984H206.09L205.05 5.31543H200.391L196.92 22ZM218.981 22H206.266L210.793 0.583984H223.508L222.555 5.22754H215.568L214.88 8.59668H221.383L220.329 13.2402H213.825L212.99 17.2832H219.977L218.981 22Z" fill="#3E2768"/>
</svg>
