<svg width="1164" height="324" viewBox="0 0 1164 324" fill="none" xmlns="http://www.w3.org/2000/svg">
<path d="M636.689 88.285L699.469 56.461L818.731 88.285H636.689Z" fill="url(#paint0_linear_0_22)"/>
<path d="M571.487 88.285L627.809 66.969L815.952 88.285H571.487Z" fill="url(#paint1_linear_0_22)"/>
<path d="M175.292 110.15L144.507 200.844L128.817 195.535L155.913 108.727L175.292 110.15Z" fill="url(#paint2_linear_0_22)"/>
<path d="M155.916 108.725L162.466 147.936L175.292 110.15L155.916 108.725Z" fill="url(#paint3_linear_0_22)"/>
<path d="M214.761 193.169C214.254 193.983 213.706 194.839 213.157 195.686C210.341 200.072 207.283 204.542 207.042 204.218L155.915 108.727L166.424 109.5L170.171 109.774L177.615 110.322L217.975 187.577C218.085 187.711 216.631 190.178 214.761 193.169Z" fill="url(#paint4_linear_0_22)"/>
<path d="M214.761 193.169C214.254 193.983 213.706 194.839 213.157 195.686C212.866 195.669 212.575 195.536 212.376 195.279L166.426 109.5L170.173 109.774L214.67 193.027C214.703 193.069 214.737 193.119 214.761 193.169Z" fill="url(#paint5_linear_0_22)"/>
<path d="M1017.53 267.818H1156.82V267.818C1156.82 295.598 1134.3 318.118 1106.52 318.118H1017.53V267.818H1017.53Z" fill="url(#paint6_linear_0_22)"/>
<path d="M1017.53 267.776H1157.75C1160.99 267.776 1163.62 270.403 1163.62 273.643V273.643H1017.53V267.776Z" fill="url(#paint7_linear_0_22)"/>
<path fill-rule="evenodd" clip-rule="evenodd" d="M300.078 139.924L340.217 178.675L348.913 187.055L20.108 172.775L9.528 166.875V154.963C9.528 148.119 12.357 141.608 17.518 136.595C23.455 130.805 31.927 127.642 40.657 127.901L300.078 139.924ZM16.926 154.962V165.228L329.73 178.824L328.99 178.121L296.952 147.193L40.379 135.299C33.684 135.096 27.191 137.501 22.678 141.903C18.961 145.491 16.926 150.134 16.926 154.962Z" fill="url(#paint8_linear_0_22)"/>
<path d="M898.371 88.285H806.944L823.892 118.956H1000.79V118.956C970.377 98.947 934.772 88.285 898.371 88.285Z" fill="url(#paint9_linear_0_22)"/>
<path d="M1034.08 267.776L413.318 190.514L353.351 187.554L359.751 183.688L445.948 131.582L460.209 122.963L517.587 88.281H799.538C846.761 88.281 891.949 103.929 928.536 131.786C946.7 145.603 962.756 162.436 975.907 181.858L985.674 196.285L1034.08 267.776Z" fill="url(#paint10_linear_0_22)"/>
<path d="M955.893 156.646H773.382C798.482 144.031 813.372 131.786 813.372 131.786H928.535C938.302 139.221 947.476 147.527 955.893 156.646Z" fill="url(#paint11_linear_0_22)"/>
<path d="M985.673 196.285L664.341 183.892C699.819 183.892 731.467 174.958 756.383 164.489H962.81C967.434 170.02 971.8 175.809 975.906 181.858L985.673 196.285Z" fill="url(#paint12_linear_0_22)"/>
<path d="M774.807 131.582C774.807 131.582 740.679 179.471 413.318 190.514L353.351 187.554L359.751 183.688L445.948 131.582H774.807V131.582Z" fill="url(#paint13_linear_0_22)"/>
<path d="M495.17 258.047L499.506 267.505H516.263L506.013 262.777L502.665 256.466L507.478 243.709L509.955 237.15L505.717 225.713L502.338 241.223L499.705 253.316L495.17 258.047Z" fill="url(#paint14_linear_0_22)"/>
<path d="M522.572 237.342V262.976L522.957 267.505H546.028L535.188 263.368L528.29 260.805L529.375 246.611L530.461 232.419L522.572 237.342Z" fill="url(#paint15_linear_0_22)"/>
<path d="M515.081 143.635L495.17 232.22L511.336 243.26L533.989 145.874L515.081 143.635Z" fill="url(#paint16_linear_0_22)"/>
<path d="M514.579 145.868L515.863 223.798L530.326 149.871L514.579 145.868Z" fill="url(#paint17_linear_0_22)"/>
<path d="M518.831 143.635L517.053 244.147L533.989 236.656V145.874L518.831 143.635Z" fill="url(#paint18_linear_0_22)"/>
<path d="M528.275 145.197V239.183L526.383 240.02V145.197H528.275Z" fill="url(#paint19_linear_0_22)"/>
<path d="M533.085 70.173C533.085 70.173 532.775 72.342 532.208 76.876C531.641 81.41 524.298 70.173 524.298 70.173L528.345 56.709L533.085 70.173Z" fill="url(#paint20_linear_0_22)"/>
<path d="M506.802 143.705C507.163 143.705 516.523 146.414 523.776 148.533C528.968 150.047 534.573 148.57 538.344 144.692L538.142 141.836L537.824 137.344L537.393 131.228L537.078 126.736L536.644 120.62L536.329 116.128L535.898 110.012L535.58 105.52L535.176 99.802L534.858 95.313L534.454 89.595L534.139 85.103L533.705 78.987L533.39 74.495L533.084 70.171C533.084 70.171 532.527 79.436 524.299 70.171C524.299 70.171 520.223 70.171 516.731 72.538C516.434 72.74 516.113 73.419 515.774 74.495C515.422 75.602 515.052 77.131 514.67 78.987C514.306 80.754 513.93 82.818 513.551 85.103C513.316 86.522 513.077 88.023 512.838 89.595C512.56 91.421 512.285 93.338 512.009 95.313C511.804 96.781 511.599 98.279 511.4 99.802C511.149 101.683 510.905 103.594 510.663 105.52C510.476 107.012 510.293 108.514 510.116 110.012C509.865 112.067 509.627 114.116 509.397 116.128C509.223 117.648 509.055 119.152 508.889 120.62C508.657 122.739 508.436 124.791 508.235 126.736C508.07 128.308 507.917 129.812 507.776 131.228C507.55 133.518 507.354 135.582 507.195 137.344C507.03 139.218 506.905 140.747 506.837 141.836C506.759 143.038 506.744 143.705 506.802 143.705Z" fill="url(#paint21_linear_0_22)"/>
<path d="M506.015 262.776L516.264 267.506H499.507L495.169 258.046L499.706 253.316L502.664 256.468L506.015 262.776Z" fill="url(#paint22_linear_0_22)"/>
<path d="M546.029 267.506H522.956L522.572 262.975V261.794L528.29 260.806L535.189 263.367L546.029 267.506Z" fill="url(#paint23_linear_0_22)"/>
<path d="M516.438 66.717C518.701 68.778 522.028 68.809 523.875 66.784C524.138 66.494 524.355 66.175 524.529 65.836C527.807 66.753 531.287 65.986 533.54 63.515C534.699 62.243 535.424 60.849 535.681 59.344C533.014 59.124 533.531 58.231 533.531 58.231L535.757 57.363C535.705 56.77 535.586 56.164 535.399 55.544C536.699 55.205 537.371 53.877 537.371 53.877C537.371 53.877 534.83 53.834 534.356 52.914C533.799 51.932 533.075 51.012 532.182 50.196C528.109 46.484 522.116 46.429 518.795 50.074C516.759 52.306 516.202 55.41 517.009 58.33C516.52 58.575 516.067 58.902 515.685 59.321C513.841 61.345 514.178 64.656 516.438 66.717Z" fill="url(#paint24_linear_0_22)"/>
<path d="M533.662 54.8367C533.822 54.7214 533.71 54.2916 533.411 53.8767C533.112 53.4617 532.74 53.2187 532.58 53.334C532.42 53.4492 532.532 53.879 532.831 54.294C533.13 54.709 533.502 54.9519 533.662 54.8367Z" fill="#1D1D1B"/>
<path d="M506.839 141.836H538.142L537.824 137.344H507.197C507.032 139.219 506.906 140.748 506.839 141.836Z" fill="url(#paint25_linear_0_22)"/>
<path d="M507.778 131.229H537.393L537.078 126.737H508.236C508.071 128.309 507.918 129.813 507.778 131.229Z" fill="url(#paint26_linear_0_22)"/>
<path d="M508.891 120.621H536.644L536.329 116.129H509.399C509.224 117.649 509.056 119.153 508.891 120.621Z" fill="url(#paint27_linear_0_22)"/>
<path d="M510.117 110.013H535.898L535.58 105.521H510.665C510.478 107.014 510.294 108.515 510.117 110.013Z" fill="url(#paint28_linear_0_22)"/>
<path d="M511.401 99.803H535.176L534.858 95.314H512.01C511.805 96.782 511.6 98.28 511.401 99.803Z" fill="url(#paint29_linear_0_22)"/>
<path d="M512.838 89.596H534.454L534.139 85.104H513.55C513.315 86.523 513.077 88.024 512.838 89.596Z" fill="url(#paint30_linear_0_22)"/>
<path d="M514.67 78.989H533.705L533.39 74.497H515.774C515.422 75.604 515.052 77.132 514.67 78.989Z" fill="url(#paint31_linear_0_22)"/>
<path d="M522.506 75.717L520.763 108.351L534.211 151.04L529.452 163.756H523.729L527.487 159.442L528.534 149.905L510.898 109.713L514.107 78.426C514.478 74.806 518.621 72.937 521.581 75.055L522.506 75.717Z" fill="url(#paint32_linear_0_22)"/>
<path d="M508.713 101.406L525.394 98.691L525.024 94.939L524.504 89.683L523.84 82.989L523.32 77.736L522.834 72.822C522.678 71.244 520.223 71.269 518.929 71.269C515.743 71.266 513.55 73.96 512.037 77.736C511.398 79.332 510.881 81.127 510.465 82.989C509.973 85.188 509.618 87.487 509.361 89.683C509.144 91.548 509 93.34 508.902 94.939C508.674 98.712 508.713 101.406 508.713 101.406Z" fill="url(#paint33_linear_0_22)"/>
<path d="M508.903 94.938H525.024L524.504 89.682H509.361C509.145 91.547 509.001 93.339 508.903 94.938Z" fill="url(#paint34_linear_0_22)"/>
<path d="M510.466 82.988H523.841L523.321 77.735H512.038C511.398 79.331 510.881 81.126 510.466 82.988Z" fill="url(#paint35_linear_0_22)"/>
<path d="M531.136 52.8384C531.819 52.5865 532.313 52.218 532.238 52.0154C532.163 51.8128 531.549 51.8527 530.865 52.1046C530.182 52.3565 529.688 52.725 529.763 52.9276C529.838 53.1302 530.452 53.0903 531.136 52.8384Z" fill="#1D1D1B"/>
<path d="M514.67 61.174C514.67 61.174 516.321 57.844 519.422 60.107C522.526 62.37 523.841 63.389 523.841 63.389L521.999 60.784L523.149 59.218L522.266 57.367L522.897 56.863L521.882 55.322L523.328 56.515L526.361 54.087L525.933 52.995L526.734 53.787L527.352 53.292L526.924 52.09L527.667 53.041L530.165 51.038L529.382 49.827L530.679 50.628L532.887 48.857C532.887 48.857 524.906 42.442 517.42 48.08C510.466 53.318 514.67 61.174 514.67 61.174Z" fill="#1D1D1B"/>
<path d="M517.548 66.161C517.548 66.161 514.67 61.852 516.19 60.947C519.195 59.158 521.964 64.115 522.148 65.344C522.332 66.573 518.065 67.332 520.393 63.986C520.393 63.986 519.714 62.061 519.682 63.081C519.65 64.101 518.909 63.954 518.909 63.954C518.909 63.954 518.684 62.933 517.743 62.435C516.643 61.852 516.636 63.381 517.548 66.161Z" fill="url(#paint36_linear_0_22)"/>
<path d="M1120.13 323.397H485.734C424.75 323.397 364.264 315.979 305.536 301.496C240.63 285.496 177.888 260.839 119.049 227.989L20.108 172.775L9.528 166.875L0.723 161.954L9.528 162.379L16.927 162.749L328.991 178.12L340.218 178.675L901.956 206.329C936.158 208.012 969.359 215.744 1000.19 228.803C1045.27 247.874 1085.28 278.338 1115.89 317.922L1120.13 323.397Z" fill="url(#paint37_linear_0_22)"/>
<path d="M1120.13 323.397H485.734C424.75 323.397 364.264 315.979 305.536 301.496C263.123 286.976 221.948 268.645 182.512 246.634L83.57 191.42L72.99 185.52L64.185 180.599L72.99 181.024L80.389 181.394L392.453 196.765L403.68 197.32L965.418 224.973C977.145 225.547 988.762 226.841 1000.19 228.802C1045.27 247.873 1085.28 278.337 1115.89 317.921L1120.13 323.397Z" fill="url(#paint38_linear_0_22)"/>
<path d="M315.236 273.525C318.411 273.525 320.985 270.951 320.985 267.776C320.985 264.601 318.411 262.027 315.236 262.027C312.061 262.027 309.487 264.601 309.487 267.776C309.487 270.951 312.061 273.525 315.236 273.525Z" fill="url(#paint39_linear_0_22)"/>
<path d="M343.887 273.525C347.062 273.525 349.636 270.951 349.636 267.776C349.636 264.601 347.062 262.027 343.887 262.027C340.712 262.027 338.138 264.601 338.138 267.776C338.138 270.951 340.712 273.525 343.887 273.525Z" fill="url(#paint40_linear_0_22)"/>
<path d="M371.116 273.525C374.291 273.525 376.865 270.951 376.865 267.776C376.865 264.601 374.291 262.027 371.116 262.027C367.941 262.027 365.367 264.601 365.367 267.776C365.367 270.951 367.941 273.525 371.116 273.525Z" fill="url(#paint41_linear_0_22)"/>
<path d="M440.286 273.525C443.461 273.525 446.035 270.951 446.035 267.776C446.035 264.601 443.461 262.027 440.286 262.027C437.111 262.027 434.537 264.601 434.537 267.776C434.537 270.951 437.111 273.525 440.286 273.525Z" fill="url(#paint42_linear_0_22)"/>
<path d="M468.937 273.525C472.112 273.525 474.686 270.951 474.686 267.776C474.686 264.601 472.112 262.027 468.937 262.027C465.762 262.027 463.188 264.601 463.188 267.776C463.188 270.951 465.762 273.525 468.937 273.525Z" fill="url(#paint43_linear_0_22)"/>
<path d="M496.165 273.525C499.34 273.525 501.914 270.951 501.914 267.776C501.914 264.601 499.34 262.027 496.165 262.027C492.99 262.027 490.416 264.601 490.416 267.776C490.416 270.951 492.99 273.525 496.165 273.525Z" fill="url(#paint44_linear_0_22)"/>
<path d="M699.469 273.525C702.644 273.525 705.218 270.951 705.218 267.776C705.218 264.601 702.644 262.027 699.469 262.027C696.294 262.027 693.72 264.601 693.72 267.776C693.72 270.951 696.294 273.525 699.469 273.525Z" fill="url(#paint45_linear_0_22)"/>
<path d="M728.12 273.525C731.295 273.525 733.869 270.951 733.869 267.776C733.869 264.601 731.295 262.027 728.12 262.027C724.945 262.027 722.371 264.601 722.371 267.776C722.371 270.951 724.945 273.525 728.12 273.525Z" fill="url(#paint46_linear_0_22)"/>
<path d="M755.348 273.525C758.523 273.525 761.097 270.951 761.097 267.776C761.097 264.601 758.523 262.027 755.348 262.027C752.173 262.027 749.599 264.601 749.599 267.776C749.599 270.951 752.173 273.525 755.348 273.525Z" fill="url(#paint47_linear_0_22)"/>
<path d="M824.518 273.525C827.693 273.525 830.267 270.951 830.267 267.776C830.267 264.601 827.693 262.027 824.518 262.027C821.343 262.027 818.769 264.601 818.769 267.776C818.769 270.951 821.343 273.525 824.518 273.525Z" fill="url(#paint48_linear_0_22)"/>
<path d="M853.17 273.525C856.345 273.525 858.919 270.951 858.919 267.776C858.919 264.601 856.345 262.027 853.17 262.027C849.995 262.027 847.421 264.601 847.421 267.776C847.421 270.951 849.995 273.525 853.17 273.525Z" fill="url(#paint49_linear_0_22)"/>
<path d="M880.398 273.525C883.573 273.525 886.147 270.951 886.147 267.776C886.147 264.601 883.573 262.027 880.398 262.027C877.223 262.027 874.649 264.601 874.649 267.776C874.649 270.951 877.223 273.525 880.398 273.525Z" fill="url(#paint50_linear_0_22)"/>
<path d="M742.238 22.708L730.959 60.746L710.101 82.847L701.453 88.218H722.662L716.754 84.51C716.754 84.511 758.972 61.007 742.238 22.708Z" fill="url(#paint51_linear_0_22)"/>
<path d="M763.707 21.49L780.088 57.31L799.945 81.213L809.507 88.213L791.928 88.22L797.915 85.842C797.915 85.842 764.478 69.243 762.987 40.696C762.224 26.097 763.707 21.49 763.707 21.49Z" fill="url(#paint52_linear_0_22)"/>
<path d="M740.576 125.269L742.69 150.364L726.237 160.394L747.767 153.158L748.197 125.139L740.576 125.269Z" fill="url(#paint53_linear_0_22)"/>
<path d="M742.69 150.364L740.12 152.861L747.936 150.285L747.268 161.633L746.115 161.565L745.093 154.056L742.569 156.161C738.832 159.278 734.048 160.853 729.191 160.567L726.237 160.393L742.69 150.364Z" fill="url(#paint54_linear_0_22)"/>
<path d="M733.335 131.373L753.137 136.273L755.015 94.745L772.889 88.927L778.49 87.104C781.137 82.573 781.302 78.353 779.05 74.751C778.095 73.225 776.704 71.808 774.888 70.527L768.218 65.823L738.595 78.823L733.335 131.373Z" fill="url(#paint55_linear_0_22)"/>
<path d="M748.211 78.796L753.813 121.309L755.014 94.744L778.864 74.749L748.211 78.796Z" fill="url(#paint56_linear_0_22)"/>
<path d="M738.117 38.248L742.966 44.89L743.077 77.651C743.077 77.651 753.089 80.05 762.964 79.749C769.153 79.562 775.283 78.312 778.863 74.748L766.381 52.06L766.204 26.946L763.865 21.828L763.71 21.49L743.872 19.706L742.24 22.71C739.638 27.483 738.224 32.814 738.117 38.248Z" fill="url(#paint57_linear_0_22)"/>
<path d="M758.479 57.045L755.553 67.481L762.963 79.749C769.152 79.562 775.282 78.312 778.862 74.748L766.38 52.06L766.203 26.946L763.864 21.828L761.249 35.883L756.508 42.199L747.889 42.029L756.358 49.823L758.479 57.045Z" fill="url(#paint58_linear_0_22)"/>
<path d="M751.872 11.172L754.692 21.312L748.154 28.555L742.596 12.023L751.872 11.172Z" fill="url(#paint59_linear_0_22)"/>
<path d="M736.746 19.812L737.871 18.071C737.325 17.44 736.854 16.725 736.485 15.93C734.351 11.338 736.345 5.88498 740.937 3.75098C745.529 1.61698 750.982 3.60998 753.116 8.20298C755.25 12.795 753.256 18.248 748.664 20.382C745.241 21.972 741.342 21.269 738.693 18.907L736.746 19.812Z" fill="url(#paint60_linear_0_22)"/>
<path d="M739.058 16.5647C739.175 16.5105 739.116 16.1352 738.926 15.7265C738.736 15.3178 738.487 15.0304 738.371 15.0847C738.254 15.1389 738.313 15.5141 738.503 15.9228C738.693 16.3316 738.941 16.6189 739.058 16.5647Z" fill="#1D1D1B"/>
<path d="M744.152 0.543975C749.311 -0.137025 752.456 1.88798 754.375 4.59998V4.59998C754.375 4.59998 757.811 12.636 758.019 15.482L756.871 16.656L755.757 14.839C755.989 16.367 755.994 17.417 755.994 17.417L747.384 23.847L744.001 16.196C743.365 14.758 741.932 13.84 740.36 13.864L739.379 13.879L738.851 12.743L738.428 14.069L737.307 14.329L736.472 12.532L736.292 14.542L735.088 14.878C734.37 13.768 733.334 1.97197 744.152 0.543975Z" fill="#1D1D1B"/>
<defs>
<linearGradient id="paint0_linear_0_22" x1="854.964" y1="97.2408" x2="855.322" y2="51.9416" gradientUnits="userSpaceOnUse">
<stop stop-color="#670B52"/>
<stop offset="1" stop-color="#0A1C3C"/>
</linearGradient>
<linearGradient id="paint1_linear_0_22" x1="914.795" y1="111.445" x2="914.836" y2="72.3261" gradientUnits="userSpaceOnUse">
<stop stop-color="#670B52"/>
<stop offset="1" stop-color="#0A1C3C"/>
</linearGradient>
<linearGradient id="paint2_linear_0_22" x1="127.704" y1="204.634" x2="177.267" y2="204.169" gradientUnits="userSpaceOnUse">
<stop stop-color="#2AB7FA"/>
<stop offset="1" stop-color="#2262B9"/>
</linearGradient>
<linearGradient id="paint3_linear_0_22" x1="172.106" y1="184.572" x2="169.816" y2="169.388" gradientUnits="userSpaceOnUse">
<stop stop-color="#2AB7FA"/>
<stop offset="1" stop-color="#2262B9"/>
</linearGradient>
<linearGradient id="paint4_linear_0_22" x1="155.916" y1="204.235" x2="217.982" y2="204.235" gradientUnits="userSpaceOnUse">
<stop stop-color="#2AB7FA"/>
<stop offset="1" stop-color="#2262B9"/>
</linearGradient>
<linearGradient id="paint5_linear_0_22" x1="193.353" y1="217.448" x2="193.353" y2="207.606" gradientUnits="userSpaceOnUse">
<stop stop-color="#2AB7FA"/>
<stop offset="1" stop-color="#2262B9"/>
</linearGradient>
<linearGradient id="paint6_linear_0_22" x1="995.727" y1="230.154" x2="994.392" y2="300.343" gradientUnits="userSpaceOnUse">
<stop stop-color="#670B52"/>
<stop offset="1" stop-color="#0A1C3C"/>
</linearGradient>
<linearGradient id="paint7_linear_0_22" x1="628.58" y1="254.381" x2="628.579" y2="291.51" gradientUnits="userSpaceOnUse">
<stop stop-color="#EDEDED"/>
<stop offset="1" stop-color="#B4D3EC"/>
</linearGradient>
<linearGradient id="paint8_linear_0_22" x1="9.5276" y1="127.886" x2="9.5276" y2="187.055" gradientUnits="userSpaceOnUse">
<stop stop-color="#EDEDED"/>
<stop offset="1" stop-color="#B4D3EC"/>
</linearGradient>
<linearGradient id="paint9_linear_0_22" x1="684.185" y1="32.124" x2="682.669" y2="117.642" gradientUnits="userSpaceOnUse">
<stop stop-color="#EDEDED"/>
<stop offset="1" stop-color="#B4D3EC"/>
</linearGradient>
<linearGradient id="paint10_linear_0_22" x1="430.272" y1="134.491" x2="430.601" y2="271.726" gradientUnits="userSpaceOnUse">
<stop stop-color="#EDEDED"/>
<stop offset="1" stop-color="#B4D3EC"/>
</linearGradient>
<linearGradient id="paint11_linear_0_22" x1="606.274" y1="124.566" x2="606.08" y2="196.225" gradientUnits="userSpaceOnUse">
<stop stop-color="#670B52"/>
<stop offset="1" stop-color="#0A1C3C"/>
</linearGradient>
<linearGradient id="paint12_linear_0_22" x1="351.4" y1="147.436" x2="351.265" y2="242.395" gradientUnits="userSpaceOnUse">
<stop stop-color="#670B52"/>
<stop offset="1" stop-color="#0A1C3C"/>
</linearGradient>
<linearGradient id="paint13_linear_0_22" x1="86.2555" y1="82.9114" x2="85.8653" y2="219.666" gradientUnits="userSpaceOnUse">
<stop stop-color="#670B52"/>
<stop offset="1" stop-color="#0A1C3C"/>
</linearGradient>
<linearGradient id="paint14_linear_0_22" x1="517.701" y1="255.284" x2="516.179" y2="207.602" gradientUnits="userSpaceOnUse">
<stop stop-color="#F7C9AA"/>
<stop offset="1" stop-color="#FF717A"/>
</linearGradient>
<linearGradient id="paint15_linear_0_22" x1="550.171" y1="255.146" x2="549.304" y2="207.436" gradientUnits="userSpaceOnUse">
<stop stop-color="#F7C9AA"/>
<stop offset="1" stop-color="#FF717A"/>
</linearGradient>
<linearGradient id="paint16_linear_0_22" x1="521.277" y1="241.308" x2="562.598" y2="207.659" gradientUnits="userSpaceOnUse">
<stop stop-color="#2AB7FA"/>
<stop offset="1" stop-color="#2262B9"/>
</linearGradient>
<linearGradient id="paint17_linear_0_22" x1="522.215" y1="245.11" x2="538.543" y2="226.882" gradientUnits="userSpaceOnUse">
<stop stop-color="#2AB7FA"/>
<stop offset="1" stop-color="#2262B9"/>
</linearGradient>
<linearGradient id="paint18_linear_0_22" x1="533.722" y1="204.362" x2="489.727" y2="172.858" gradientUnits="userSpaceOnUse">
<stop stop-color="#2AB7FA"/>
<stop offset="1" stop-color="#2262B9"/>
</linearGradient>
<linearGradient id="paint19_linear_0_22" x1="527.805" y1="250.916" x2="527.805" y2="203.197" gradientUnits="userSpaceOnUse">
<stop stop-color="#2AB7FA"/>
<stop offset="1" stop-color="#2262B9"/>
</linearGradient>
<linearGradient id="paint20_linear_0_22" x1="521.525" y1="96.2641" x2="541.208" y2="94.309" gradientUnits="userSpaceOnUse">
<stop stop-color="#F7C9AA"/>
<stop offset="1" stop-color="#FF717A"/>
</linearGradient>
<linearGradient id="paint21_linear_0_22" x1="492.714" y1="137.101" x2="569.534" y2="180.979" gradientUnits="userSpaceOnUse">
<stop stop-color="#EDEDED"/>
<stop offset="1" stop-color="#B4D3EC"/>
</linearGradient>
<linearGradient id="paint22_linear_0_22" x1="508.6" y1="272.641" x2="508.6" y2="268.762" gradientUnits="userSpaceOnUse">
<stop stop-color="#2FAC66"/>
<stop offset="1" stop-color="#006680"/>
</linearGradient>
<linearGradient id="paint23_linear_0_22" x1="541.092" y1="272.641" x2="541.092" y2="268.762" gradientUnits="userSpaceOnUse">
<stop stop-color="#2FAC66"/>
<stop offset="1" stop-color="#006680"/>
</linearGradient>
<linearGradient id="paint24_linear_0_22" x1="536.87" y1="58.0612" x2="530.815" y2="39.6095" gradientUnits="userSpaceOnUse">
<stop stop-color="#F7C9AA"/>
<stop offset="1" stop-color="#FF717A"/>
</linearGradient>
<linearGradient id="paint25_linear_0_22" x1="485.993" y1="57.617" x2="485.993" y2="68.0918" gradientUnits="userSpaceOnUse">
<stop stop-color="#2FAC66"/>
<stop offset="1" stop-color="#006680"/>
</linearGradient>
<linearGradient id="paint26_linear_0_22" x1="488.056" y1="57.617" x2="488.056" y2="68.0918" gradientUnits="userSpaceOnUse">
<stop stop-color="#2FAC66"/>
<stop offset="1" stop-color="#006680"/>
</linearGradient>
<linearGradient id="paint27_linear_0_22" x1="490.409" y1="57.617" x2="490.409" y2="68.0918" gradientUnits="userSpaceOnUse">
<stop stop-color="#2FAC66"/>
<stop offset="1" stop-color="#006680"/>
</linearGradient>
<linearGradient id="paint28_linear_0_22" x1="492.948" y1="57.617" x2="492.948" y2="68.0918" gradientUnits="userSpaceOnUse">
<stop stop-color="#2FAC66"/>
<stop offset="1" stop-color="#006680"/>
</linearGradient>
<linearGradient id="paint29_linear_0_22" x1="495.55" y1="57.617" x2="495.55" y2="68.0918" gradientUnits="userSpaceOnUse">
<stop stop-color="#2FAC66"/>
<stop offset="1" stop-color="#006680"/>
</linearGradient>
<linearGradient id="paint30_linear_0_22" x1="498.443" y1="57.617" x2="498.443" y2="68.0918" gradientUnits="userSpaceOnUse">
<stop stop-color="#2FAC66"/>
<stop offset="1" stop-color="#006680"/>
</linearGradient>
<linearGradient id="paint31_linear_0_22" x1="501.994" y1="57.617" x2="501.994" y2="68.0918" gradientUnits="userSpaceOnUse">
<stop stop-color="#2FAC66"/>
<stop offset="1" stop-color="#006680"/>
</linearGradient>
<linearGradient id="paint32_linear_0_22" x1="535.518" y1="83.6672" x2="495.87" y2="74.0027" gradientUnits="userSpaceOnUse">
<stop stop-color="#F7C9AA"/>
<stop offset="1" stop-color="#FF717A"/>
</linearGradient>
<linearGradient id="paint33_linear_0_22" x1="509.865" y1="74.7213" x2="506.001" y2="103.739" gradientUnits="userSpaceOnUse">
<stop stop-color="#EDEDED"/>
<stop offset="1" stop-color="#B4D3EC"/>
</linearGradient>
<linearGradient id="paint34_linear_0_22" x1="498.165" y1="33.6245" x2="498.165" y2="45.882" gradientUnits="userSpaceOnUse">
<stop stop-color="#2FAC66"/>
<stop offset="1" stop-color="#006680"/>
</linearGradient>
<linearGradient id="paint35_linear_0_22" x1="501.547" y1="33.6174" x2="501.547" y2="45.8761" gradientUnits="userSpaceOnUse">
<stop stop-color="#2FAC66"/>
<stop offset="1" stop-color="#006680"/>
</linearGradient>
<linearGradient id="paint36_linear_0_22" x1="527.488" y1="75.9254" x2="530.01" y2="57.1049" gradientUnits="userSpaceOnUse">
<stop stop-color="#F7C9AA"/>
<stop offset="1" stop-color="#FF717A"/>
</linearGradient>
<linearGradient id="paint37_linear_0_22" x1="298.05" y1="276.577" x2="298.05" y2="352.257" gradientUnits="userSpaceOnUse">
<stop stop-color="#EDEDED"/>
<stop offset="1" stop-color="#B4D3EC"/>
</linearGradient>
<linearGradient id="paint38_linear_0_22" x1="852.9" y1="234.512" x2="852.932" y2="164.108" gradientUnits="userSpaceOnUse">
<stop stop-color="#EDEDED"/>
<stop offset="1" stop-color="#B4D3EC"/>
</linearGradient>
<linearGradient id="paint39_linear_0_22" x1="309.561" y1="259.344" x2="307.588" y2="272.867" gradientUnits="userSpaceOnUse">
<stop stop-color="#670B52"/>
<stop offset="1" stop-color="#0A1C3C"/>
</linearGradient>
<linearGradient id="paint40_linear_0_22" x1="338.212" y1="259.344" x2="336.239" y2="272.867" gradientUnits="userSpaceOnUse">
<stop stop-color="#670B52"/>
<stop offset="1" stop-color="#0A1C3C"/>
</linearGradient>
<linearGradient id="paint41_linear_0_22" x1="365.44" y1="259.344" x2="363.467" y2="272.867" gradientUnits="userSpaceOnUse">
<stop stop-color="#670B52"/>
<stop offset="1" stop-color="#0A1C3C"/>
</linearGradient>
<linearGradient id="paint42_linear_0_22" x1="434.611" y1="259.344" x2="432.637" y2="272.867" gradientUnits="userSpaceOnUse">
<stop stop-color="#670B52"/>
<stop offset="1" stop-color="#0A1C3C"/>
</linearGradient>
<linearGradient id="paint43_linear_0_22" x1="463.262" y1="259.344" x2="461.289" y2="272.867" gradientUnits="userSpaceOnUse">
<stop stop-color="#670B52"/>
<stop offset="1" stop-color="#0A1C3C"/>
</linearGradient>
<linearGradient id="paint44_linear_0_22" x1="490.49" y1="259.344" x2="488.517" y2="272.867" gradientUnits="userSpaceOnUse">
<stop stop-color="#670B52"/>
<stop offset="1" stop-color="#0A1C3C"/>
</linearGradient>
<linearGradient id="paint45_linear_0_22" x1="693.793" y1="259.344" x2="691.82" y2="272.867" gradientUnits="userSpaceOnUse">
<stop stop-color="#670B52"/>
<stop offset="1" stop-color="#0A1C3C"/>
</linearGradient>
<linearGradient id="paint46_linear_0_22" x1="722.445" y1="259.344" x2="720.471" y2="272.867" gradientUnits="userSpaceOnUse">
<stop stop-color="#670B52"/>
<stop offset="1" stop-color="#0A1C3C"/>
</linearGradient>
<linearGradient id="paint47_linear_0_22" x1="749.673" y1="259.344" x2="747.699" y2="272.867" gradientUnits="userSpaceOnUse">
<stop stop-color="#670B52"/>
<stop offset="1" stop-color="#0A1C3C"/>
</linearGradient>
<linearGradient id="paint48_linear_0_22" x1="818.843" y1="259.344" x2="816.87" y2="272.867" gradientUnits="userSpaceOnUse">
<stop stop-color="#670B52"/>
<stop offset="1" stop-color="#0A1C3C"/>
</linearGradient>
<linearGradient id="paint49_linear_0_22" x1="847.494" y1="259.344" x2="845.521" y2="272.867" gradientUnits="userSpaceOnUse">
<stop stop-color="#670B52"/>
<stop offset="1" stop-color="#0A1C3C"/>
</linearGradient>
<linearGradient id="paint50_linear_0_22" x1="874.722" y1="259.344" x2="872.749" y2="272.867" gradientUnits="userSpaceOnUse">
<stop stop-color="#670B52"/>
<stop offset="1" stop-color="#0A1C3C"/>
</linearGradient>
<linearGradient id="paint51_linear_0_22" x1="764.915" y1="63.4719" x2="769.051" y2="-56.8083" gradientUnits="userSpaceOnUse">
<stop stop-color="#F7C9AA"/>
<stop offset="1" stop-color="#FF717A"/>
</linearGradient>
<linearGradient id="paint52_linear_0_22" x1="828.349" y1="62.9941" x2="832.275" y2="-57.5018" gradientUnits="userSpaceOnUse">
<stop stop-color="#F7C9AA"/>
<stop offset="1" stop-color="#FF717A"/>
</linearGradient>
<linearGradient id="paint53_linear_0_22" x1="744.482" y1="173.404" x2="777.606" y2="155.071" gradientUnits="userSpaceOnUse">
<stop stop-color="#F7C9AA"/>
<stop offset="1" stop-color="#FF717A"/>
</linearGradient>
<linearGradient id="paint54_linear_0_22" x1="726.487" y1="59.4405" x2="725.749" y2="82.5584" gradientUnits="userSpaceOnUse">
<stop stop-color="#2AB7FA"/>
<stop offset="1" stop-color="#2262B9"/>
</linearGradient>
<linearGradient id="paint55_linear_0_22" x1="755.756" y1="71.8629" x2="715.909" y2="72.1578" gradientUnits="userSpaceOnUse">
<stop stop-color="#2AB7FA"/>
<stop offset="1" stop-color="#2262B9"/>
</linearGradient>
<linearGradient id="paint56_linear_0_22" x1="765.663" y1="142.002" x2="766.12" y2="131.94" gradientUnits="userSpaceOnUse">
<stop stop-color="#2AB7FA"/>
<stop offset="1" stop-color="#2262B9"/>
</linearGradient>
<linearGradient id="paint57_linear_0_22" x1="737.52" y1="74.1316" x2="718.006" y2="114.442" gradientUnits="userSpaceOnUse">
<stop stop-color="#D60B52"/>
<stop offset="1" stop-color="#8A1C4D"/>
</linearGradient>
<linearGradient id="paint58_linear_0_22" x1="779.578" y1="21.9681" x2="747.969" y2="21.79" gradientUnits="userSpaceOnUse">
<stop stop-color="#D60B52"/>
<stop offset="1" stop-color="#8A1C4D"/>
</linearGradient>
<linearGradient id="paint59_linear_0_22" x1="761.311" y1="30.6158" x2="750.881" y2="7.91416" gradientUnits="userSpaceOnUse">
<stop stop-color="#F7C9AA"/>
<stop offset="1" stop-color="#FF717A"/>
</linearGradient>
<linearGradient id="paint60_linear_0_22" x1="763.396" y1="16.6936" x2="750.281" y2="-10.7994" gradientUnits="userSpaceOnUse">
<stop stop-color="#F7C9AA"/>
<stop offset="1" stop-color="#FF717A"/>
</linearGradient>
</defs>
</svg>
